<?xml version="1.0" standalone="no"?>
<svg xmlns:xlink="http://www.w3.org/1999/xlink" id="wave" style="transform:rotate(0deg); transition: 0.3s" viewBox="0 0 1440 100" version="1.1" xmlns="http://www.w3.org/2000/svg"><defs><linearGradient id="sw-gradient-0" x1="0" x2="0" y1="1" y2="0"><stop stop-color="rgba(79, 70, 229, 1)" offset="0%"/><stop stop-color="rgba(79, 70, 229, 1)" offset="100%"/></linearGradient></defs><path style="transform:translate(0, 0px); opacity:1" fill="url(#sw-gradient-0)" d="M0,80L80,73.3C160,67,320,53,480,51.7C640,50,800,60,960,65C1120,70,1280,70,1440,63.3C1600,57,1760,43,1920,35C2080,27,2240,23,2400,33.3C2560,43,2720,67,2880,70C3040,73,3200,57,3360,41.7C3520,27,3680,13,3840,15C4000,17,4160,33,4320,46.7C4480,60,4640,70,4800,70C4960,70,5120,60,5280,51.7C5440,43,5600,37,5760,38.3C5920,40,6080,50,6240,53.3C6400,57,6560,53,6720,48.3C6880,43,7040,37,7200,35C7360,33,7520,37,7680,38.3C7840,40,8000,40,8160,38.3C8320,37,8480,33,8640,26.7C8800,20,8960,10,9120,8.3C9280,7,9440,13,9600,18.3C9760,23,9920,27,10080,23.3C10240,20,10400,10,10560,6.7C10720,3,10880,7,11040,10C11200,13,11360,17,11440,18.3L11520,20L11520,100L11440,100C11360,100,11200,100,11040,100C10880,100,10720,100,10560,100C10400,100,10240,100,10080,100C9920,100,9760,100,9600,100C9440,100,9280,100,9120,100C8960,100,8800,100,8640,100C8480,100,8320,100,8160,100C8000,100,7840,100,7680,100C7520,100,7360,100,7200,100C7040,100,6880,100,6720,100C6560,100,6400,100,6240,100C6080,100,5920,100,5760,100C5600,100,5440,100,5280,100C5120,100,4960,100,4800,100C4640,100,4480,100,4320,100C4160,100,4000,100,3840,100C3680,100,3520,100,3360,100C3200,100,3040,100,2880,100C2720,100,2560,100,2400,100C2240,100,2080,100,1920,100C1760,100,1600,100,1440,100C1280,100,1120,100,960,100C800,100,640,100,480,100C320,100,160,100,80,100L0,100Z"/></svg>