<?xml version="1.0" encoding="UTF-8"?>
<svg version="1.1" xmlns="http://www.w3.org/2000/svg" width="1730" height="2000">
<path d="M0 0 C1.99854523 0.85289993 3.5423387 1.78457308 5.27319336 3.09570312 C5.89967773 3.56685547 6.52616211 4.03800781 7.17163086 4.5234375 C8.17323242 5.29397461 8.17323242 5.29397461 9.19506836 6.08007812 C9.89889648 6.61439453 10.60272461 7.14871094 11.32788086 7.69921875 C16.96302345 12.00579125 22.46378489 16.46844609 27.94213867 20.97167969 C32.52005296 24.71927505 37.19022293 28.31037809 41.94506836 31.83007812 C48.09014111 36.37887221 54.04023885 41.11927105 59.94506836 45.97460938 C64.52250464 49.72059727 69.19138955 53.31111355 73.94506836 56.83007812 C80.15725694 61.43006492 86.18294319 66.21729847 92.16040039 71.11743164 C97.73204326 75.67896666 103.41137886 80.07471264 109.13598633 84.44335938 C112.73220694 87.19997653 116.30645925 89.98495333 119.88256836 92.76757812 C121.04054932 93.66851196 121.04054932 93.66851196 122.22192383 94.58764648 C127.36516088 98.59246596 132.49513288 102.6137641 137.61669922 106.64624023 C142.37858965 110.39255191 147.16029817 114.11305028 151.94506836 117.83007812 C157.85014431 122.41741062 163.74199619 127.0206498 169.61694336 131.64648438 C174.37881469 135.39263545 179.16038823 139.11312024 183.94506836 142.83007812 C189.85014431 147.41741062 195.74199619 152.0206498 201.61694336 156.64648438 C206.37881492 160.39263563 211.1604142 164.11308651 215.94506836 167.83007812 C224.1918916 174.23742574 232.40824947 180.68252461 240.61303711 187.14355469 C248.4782554 193.33580988 256.36704939 199.49675559 264.2722168 205.63793945 C269.4006635 209.62376475 274.51379414 213.62835053 279.61694336 217.64648438 C284.37881469 221.39263545 289.16038823 225.11312024 293.94506836 228.83007812 C299.85014431 233.41741062 305.74199619 238.0206498 311.61694336 242.64648438 C316.37881469 246.39263545 321.16038823 250.11312024 325.94506836 253.83007812 C331.85014431 258.41741062 337.74199619 263.0206498 343.61694336 267.64648438 C348.37881492 271.39263563 353.1604142 275.11308651 357.94506836 278.83007812 C366.1918916 285.23742574 374.40824947 291.68252461 382.61303711 298.14355469 C390.4782554 304.33580988 398.36704939 310.49675559 406.2722168 316.63793945 C411.4006635 320.62376475 416.51379414 324.62835053 421.61694336 328.64648438 C426.37881469 332.39263545 431.16038823 336.11312024 435.94506836 339.83007812 C441.85014431 344.41741062 447.74199619 349.0206498 453.61694336 353.64648438 C458.37881469 357.39263545 463.16038823 361.11312024 467.94506836 364.83007812 C473.85014431 369.41741062 479.74199619 374.0206498 485.61694336 378.64648438 C490.37881492 382.39263563 495.1604142 386.11308651 499.94506836 389.83007812 C508.1918916 396.23742574 516.40824947 402.68252461 524.61303711 409.14355469 C532.4782554 415.33580988 540.36704939 421.49675559 548.2722168 427.63793945 C553.4006635 431.62376475 558.51379414 435.62835053 563.61694336 439.64648438 C568.37881469 443.39263545 573.16038823 447.11312024 577.94506836 450.83007812 C583.85014431 455.41741062 589.74199619 460.0206498 595.61694336 464.64648438 C600.37881469 468.39263545 605.16038823 472.11312024 609.94506836 475.83007812 C615.85014431 480.41741062 621.74199619 485.0206498 627.61694336 489.64648438 C632.37881492 493.39263563 637.1604142 497.11308651 641.94506836 500.83007812 C650.1918916 507.23742574 658.40824947 513.68252461 666.61303711 520.14355469 C674.4782554 526.33580988 682.36704939 532.49675559 690.2722168 538.63793945 C695.4006635 542.62376475 700.51379414 546.62835053 705.61694336 550.64648438 C710.37881469 554.39263545 715.16038823 558.11312024 719.94506836 561.83007812 C725.85014431 566.41741062 731.74199619 571.0206498 737.61694336 575.64648438 C742.37881469 579.39263545 747.16038823 583.11312024 751.94506836 586.83007812 C757.85014431 591.41741062 763.74199619 596.0206498 769.61694336 600.64648438 C774.37881492 604.39263563 779.1604142 608.11308651 783.94506836 611.83007812 C792.1918916 618.23742574 800.40824947 624.68252461 808.61303711 631.14355469 C815.91597176 636.8931262 823.23461952 642.6220253 830.57006836 648.33007812 C831.72587402 649.22980347 831.72587402 649.22980347 832.9050293 650.14770508 C833.63238281 650.71320068 834.35973633 651.27869629 835.10913086 651.86132812 C835.75317871 652.36212891 836.39722656 652.86292969 837.06079102 653.37890625 C838.89805239 654.89053956 838.89805239 654.89053956 841.03218682 655.86889749 C844.06145506 658.97465292 843.48636037 662.55666828 843.43545032 666.66014022 C843.4398683 667.57987305 843.44428628 668.49960589 843.44883814 669.44720942 C843.45884436 672.56460516 843.44004303 675.68118487 843.4216423 678.79853344 C843.42289076 681.05231621 843.42589577 683.30609857 843.43050893 685.55987697 C843.43812548 691.80180271 843.42056769 698.04345091 843.39918938 704.28533552 C843.38233535 710.34637782 843.3842769 716.40739472 843.38575685 722.46845299 C843.38814953 735.03455685 843.37144714 747.60057195 843.34461355 760.16664445 C843.31719323 773.04555526 843.29871905 785.92443499 843.29073572 798.80337298 C843.28996667 800.03137329 843.28996667 800.03137329 843.28918208 801.28418168 C843.28660769 805.45885826 843.28417519 809.63353492 843.2817938 813.80821161 C843.26442141 843.76823029 843.22815693 873.72820095 843.18121338 903.68818665 C843.11780867 944.19825391 843.07935669 984.70826728 843.04516602 1025.21838379 C842.95025752 1122.65147223 842.82051282 1220.08452421 842.69506836 1317.51757812 C842.44756836 1535.09070312 842.20006836 1752.66382813 841.94506836 1976.83007812 C285.56506836 1976.83007812 -270.81493164 1976.83007812 -844.05493164 1976.83007812 C-844.32305664 1759.40132812 -844.59118164 1541.97257812 -844.86743164 1317.95507812 C-844.98578369 1249.18504395 -845.10413574 1180.41500977 -845.22607422 1109.56103516 C-845.28479004 1025.88061523 -845.28479004 1025.88061523 -845.29570007 986.76339722 C-845.30826138 958.41199602 -845.35998212 930.06100801 -845.43456254 901.70971945 C-845.51292339 871.83412163 -845.54945038 841.95876499 -845.53124069 812.08306229 C-845.52871546 807.92033466 -845.52665407 803.75760692 -845.52487123 799.59487891 C-845.52450489 798.77902636 -845.52413855 797.96317381 -845.5237611 797.12259846 C-845.51919031 784.30434113 -845.55770822 771.48660681 -845.61518872 758.66849295 C-845.67024057 746.19562269 -845.6793281 733.72343476 -845.63879106 721.25050064 C-845.61838142 714.57726956 -845.62032973 707.90542117 -845.67840517 701.23227096 C-845.73089706 695.15328173 -845.72386484 689.077419 -845.66874953 682.99847961 C-845.65944159 680.80945921 -845.67208406 678.62021139 -845.70899032 676.43148233 C-845.96002546 660.5419087 -845.96002546 660.5419087 -842.76273637 655.99068596 C-839.3158364 652.45316968 -835.3714669 650.16375009 -831.05493164 647.83007812 C-829.79676797 646.89953767 -828.55692905 645.94242925 -827.35571289 644.93945312 C-820.94277332 639.87616489 -814.50786411 634.84230215 -808.05493164 629.83007812 C-802.71002341 625.67797441 -797.37254974 621.51708116 -792.05493164 617.33007812 C-786.73731301 613.14307467 -781.39977953 608.9822601 -776.05493164 604.83007812 C-768.3669645 598.85693229 -760.70371886 592.85327415 -753.05493164 586.83007812 C-744.63436578 580.19912901 -736.19184538 573.59758193 -727.7277832 567.0222168 C-723.15942149 563.47168918 -718.60076751 559.90939281 -714.05493164 556.33007812 C-707.96522228 551.53514341 -701.84772247 546.77649113 -695.72680664 542.02148438 C-691.15879186 538.47117356 -686.60044782 534.9091411 -682.05493164 531.33007812 C-675.96522228 526.53514341 -669.84772247 521.77649113 -663.72680664 517.02148438 C-659.15879186 513.47117356 -654.60044782 509.9091411 -650.05493164 506.33007812 C-644.73731301 502.14307467 -639.39977953 497.9822601 -634.05493164 493.83007812 C-626.3669645 487.85693229 -618.70371886 481.85327415 -611.05493164 475.83007812 C-602.63436578 469.19912901 -594.19184538 462.59758193 -585.7277832 456.0222168 C-581.15942149 452.47168918 -576.60076751 448.90939281 -572.05493164 445.33007812 C-565.96522228 440.53514341 -559.84772247 435.77649113 -553.72680664 431.02148438 C-549.15879186 427.47117356 -544.60044782 423.9091411 -540.05493164 420.33007812 C-533.96522228 415.53514341 -527.84772247 410.77649113 -521.72680664 406.02148438 C-517.15879186 402.47117356 -512.60044782 398.9091411 -508.05493164 395.33007812 C-502.73731301 391.14307467 -497.39977953 386.9822601 -492.05493164 382.83007812 C-484.3669645 376.85693229 -476.70371886 370.85327415 -469.05493164 364.83007812 C-460.63436578 358.19912901 -452.19184538 351.59758193 -443.7277832 345.0222168 C-439.15942149 341.47168918 -434.60076751 337.90939281 -430.05493164 334.33007812 C-423.96522228 329.53514341 -417.84772247 324.77649113 -411.72680664 320.02148438 C-407.15879186 316.47117356 -402.60044782 312.9091411 -398.05493164 309.33007812 C-392.73731301 305.14307467 -387.39977953 300.9822601 -382.05493164 296.83007812 C-374.3669645 290.85693229 -366.70371886 284.85327415 -359.05493164 278.83007812 C-350.63436578 272.19912901 -342.19184538 265.59758193 -333.7277832 259.0222168 C-329.15942149 255.47168918 -324.60076751 251.90939281 -320.05493164 248.33007812 C-313.96522228 243.53514341 -307.84772247 238.77649113 -301.72680664 234.02148438 C-297.15879186 230.47117356 -292.60044782 226.9091411 -288.05493164 223.33007812 C-281.96522228 218.53514341 -275.84772247 213.77649113 -269.72680664 209.02148438 C-265.15879186 205.47117356 -260.60044782 201.9091411 -256.05493164 198.33007812 C-250.73731301 194.14307467 -245.39977953 189.9822601 -240.05493164 185.83007812 C-232.3669645 179.85693229 -224.70371886 173.85327415 -217.05493164 167.83007812 C-208.63436578 161.19912901 -200.19184538 154.59758193 -191.7277832 148.0222168 C-187.15942149 144.47168918 -182.60076751 140.90939281 -178.05493164 137.33007812 C-171.96522228 132.53514341 -165.84772247 127.77649113 -159.72680664 123.02148438 C-155.15879186 119.47117356 -150.60044782 115.9091411 -146.05493164 112.33007812 C-139.96522228 107.53514341 -133.84772247 102.77649113 -127.72680664 98.02148438 C-123.15879186 94.47117356 -118.60044782 90.9091411 -114.05493164 87.33007812 C-108.73731301 83.14307467 -103.39977953 78.9822601 -98.05493164 74.83007812 C-90.3669645 68.85693229 -82.70371886 62.85327415 -75.05493164 56.83007812 C-66.63436578 50.19912901 -58.19184538 43.59758193 -49.7277832 37.0222168 C-45.15942129 33.47168902 -40.60078798 29.90936703 -36.05493164 26.33007812 C-28.47984317 20.36621309 -20.88551971 14.42531555 -13.24389648 8.546875 C-11.69196656 7.32970221 -10.16303914 6.08293925 -8.65112305 4.81640625 C-7.8627002 4.16607422 -7.07427734 3.51574219 -6.26196289 2.84570312 C-5.19619019 1.94513184 -5.19619019 1.94513184 -4.10888672 1.02636719 C-2.05493164 -0.16992187 -2.05493164 -0.16992187 0 0 Z M-9.17993164 201.51757812 C-10.62866836 202.7215511 -12.0792479 203.92330946 -13.53149414 205.12304688 C-14.27947266 205.74099121 -15.02745117 206.35893555 -15.7980957 206.99560547 C-19.31996741 209.85836444 -22.9335702 212.59501707 -26.55493164 215.33007812 C-32.22477713 219.62498284 -37.80150534 224.01134139 -43.30493164 228.51757812 C-49.53151345 233.6154129 -55.84810192 238.56101597 -62.24584961 243.44335938 C-65.84207 246.19997635 -69.41634312 248.98492722 -72.99243164 251.76757812 C-73.76151855 252.36602539 -74.53060547 252.96447266 -75.32299805 253.58105469 C-81.68647732 258.53656533 -88.03241671 263.51407235 -94.36938477 268.50341797 C-97.26301991 270.78094018 -100.15912487 273.0553182 -103.05493164 275.33007812 C-104.2216096 276.24673042 -105.38827628 277.16339707 -106.55493164 278.08007812 C-108.88826497 279.91341146 -111.22159831 281.74674479 -113.55493164 283.58007812 C-114.42069824 284.26034058 -114.42069824 284.26034058 -115.30395508 284.9543457 C-116.4738318 285.87351125 -117.64375387 286.79261908 -118.8137207 287.71166992 C-121.68164321 289.96463906 -124.54884154 292.21851536 -127.41430664 294.47460938 C-134.71383302 300.21960699 -142.03798064 305.9321143 -149.37329102 311.63134766 C-155.72276192 316.56666744 -162.05085 321.52858561 -168.36938477 326.50341797 C-171.26301991 328.78094018 -174.15912487 331.0553182 -177.05493164 333.33007812 C-178.2216096 334.24673042 -179.38827628 335.16339707 -180.55493164 336.08007812 C-182.88826497 337.91341146 -185.22159831 339.74674479 -187.55493164 341.58007812 C-188.13210938 342.03358643 -188.70928711 342.48709473 -189.30395508 342.9543457 C-190.4738318 343.87351125 -191.64375387 344.79261908 -192.8137207 345.71166992 C-195.68164321 347.96463906 -198.54884154 350.21851536 -201.41430664 352.47460938 C-208.71383302 358.21960699 -216.03798064 363.9321143 -223.37329102 369.63134766 C-229.72276192 374.56666744 -236.05085 379.52858561 -242.36938477 384.50341797 C-245.26301991 386.78094018 -248.15912487 389.0553182 -251.05493164 391.33007812 C-252.2216096 392.24673042 -253.38827628 393.16339707 -254.55493164 394.08007812 C-256.88826497 395.91341146 -259.22159831 397.74674479 -261.55493164 399.58007812 C-262.13210938 400.03358643 -262.70928711 400.48709473 -263.30395508 400.9543457 C-264.4738318 401.87351125 -265.64375387 402.79261908 -266.8137207 403.71166992 C-269.68164321 405.96463906 -272.54884154 408.21851536 -275.41430664 410.47460938 C-282.71383302 416.21960699 -290.03798064 421.9321143 -297.37329102 427.63134766 C-303.72276192 432.56666744 -310.05085 437.52858561 -316.36938477 442.50341797 C-319.26301991 444.78094018 -322.15912487 447.0553182 -325.05493164 449.33007812 C-326.2216096 450.24673042 -327.38827628 451.16339707 -328.55493164 452.08007812 C-330.88826497 453.91341146 -333.22159831 455.74674479 -335.55493164 457.58007812 C-336.42069824 458.26034058 -336.42069824 458.26034058 -337.30395508 458.9543457 C-338.4738318 459.87351125 -339.64375387 460.79261908 -340.8137207 461.71166992 C-343.68164321 463.96463906 -346.54884154 466.21851536 -349.41430664 468.47460938 C-356.71383302 474.21960699 -364.03798064 479.9321143 -371.37329102 485.63134766 C-377.72276192 490.56666744 -384.05085 495.52858561 -390.36938477 500.50341797 C-393.26301991 502.78094018 -396.15912487 505.0553182 -399.05493164 507.33007812 C-400.2216096 508.24673042 -401.38827628 509.16339707 -402.55493164 510.08007812 C-404.88826497 511.91341146 -407.22159831 513.74674479 -409.55493164 515.58007812 C-410.42069824 516.26034058 -410.42069824 516.26034058 -411.30395508 516.9543457 C-412.4738318 517.87351125 -413.64375387 518.79261908 -414.8137207 519.71166992 C-417.68164321 521.96463906 -420.54884154 524.21851536 -423.41430664 526.47460938 C-430.71383302 532.21960699 -438.03798064 537.9321143 -445.37329102 543.63134766 C-451.72276192 548.56666744 -458.05085 553.52858561 -464.36938477 558.50341797 C-467.26301991 560.78094018 -470.15912487 563.0553182 -473.05493164 565.33007812 C-474.2216096 566.24673042 -475.38827628 567.16339707 -476.55493164 568.08007812 C-478.88826497 569.91341146 -481.22159831 571.74674479 -483.55493164 573.58007812 C-484.13210938 574.03358643 -484.70928711 574.48709473 -485.30395508 574.9543457 C-486.4738318 575.87351125 -487.64375387 576.79261908 -488.8137207 577.71166992 C-491.68164321 579.96463906 -494.54884154 582.21851536 -497.41430664 584.47460938 C-504.71383302 590.21960699 -512.03798064 595.9321143 -519.37329102 601.63134766 C-525.72276192 606.56666744 -532.05085 611.52858561 -538.36938477 616.50341797 C-541.26301991 618.78094018 -544.15912487 621.0553182 -547.05493164 623.33007812 C-548.2216096 624.24673042 -549.38827628 625.16339707 -550.55493164 626.08007812 C-552.88826497 627.91341146 -555.22159831 629.74674479 -557.55493164 631.58007812 C-558.13210938 632.03358643 -558.70928711 632.48709473 -559.30395508 632.9543457 C-560.4738318 633.87351125 -561.64375387 634.79261908 -562.8137207 635.71166992 C-565.68164321 637.96463906 -568.54884154 640.21851536 -571.41430664 642.47460938 C-578.71383302 648.21960699 -586.03798064 653.9321143 -593.37329102 659.63134766 C-599.72276192 664.56666744 -606.05085 669.52858561 -612.36938477 674.50341797 C-615.26301991 676.78094018 -618.15912487 679.0553182 -621.05493164 681.33007812 C-622.2216096 682.24673042 -623.38827628 683.16339707 -624.55493164 684.08007812 C-626.88826497 685.91341146 -629.22159831 687.74674479 -631.55493164 689.58007812 C-632.13210938 690.03358643 -632.70928711 690.48709473 -633.30395508 690.9543457 C-634.4738318 691.87351125 -635.64375387 692.79261908 -636.8137207 693.71166992 C-639.68164321 695.96463906 -642.54884154 698.21851536 -645.41430664 700.47460938 C-651.99043328 705.65066971 -658.57941696 710.81015063 -665.17993164 715.95507812 C-665.8834375 716.50462158 -666.58694336 717.05416504 -667.31176758 717.62036133 C-668.01333984 718.166521 -668.71491211 718.71268066 -669.43774414 719.27539062 C-670.45457278 720.09495037 -670.45457278 720.09495037 -671.4919434 720.93106687 C-674.05493164 722.83007813 -674.05493164 722.83007813 -677.07891805 724.51570758 C-682.0183394 727.49913284 -685.44005632 729.76151503 -687.1637176 735.560255 C-687.74191413 740.28491964 -687.62216725 745.00764769 -687.53150558 749.75741673 C-687.54038559 751.60535685 -687.55453336 753.45327782 -687.57345994 755.30114236 C-687.61027848 760.3894498 -687.57221407 765.47488015 -687.52212062 770.56297296 C-687.48096996 776.08128692 -687.50938859 781.59930456 -687.52911377 787.11767578 C-687.55407141 796.80265462 -687.53424213 806.48674874 -687.48551321 816.17162526 C-687.43284287 826.67426963 -687.40646769 837.17658135 -687.41179895 847.67934501 C-687.41212268 848.34798588 -687.41244641 849.01662675 -687.41277995 849.70552946 C-687.41455095 853.11541811 -687.41674732 856.52530634 -687.41909679 859.93519463 C-687.4350959 884.3808229 -687.3945507 908.82607944 -687.32183838 933.27159119 C-687.22372999 966.32537572 -687.20060776 999.37841268 -687.19018555 1032.43249512 C-687.1271309 1111.91926818 -686.95959822 1191.40593053 -686.80493164 1270.89257812 C-686.55743164 1448.41195313 -686.30993164 1625.93132812 -686.05493164 1808.83007812 C-233.95493164 1808.83007812 218.14506836 1808.83007812 683.94506836 1808.83007812 C684.13069336 1631.29007813 684.31631836 1453.75007813 684.50756836 1270.83007812 C684.58950439 1214.6759375 684.67144043 1158.52179687 684.75585938 1100.66601562 C684.78595068 1050.53174077 684.78595068 1050.53174077 684.80406189 1000.39746094 C684.81275833 977.24720506 684.84856568 954.09720039 684.90019744 930.94701396 C684.95444594 906.55236233 684.97973549 882.15785225 684.96712847 857.76313907 C684.96538023 854.36418372 684.96395312 850.96522831 684.96271884 847.56627274 C684.96246522 846.90011121 684.9622116 846.23394968 684.96195029 845.54760145 C684.95859482 834.44920376 684.99047387 823.35109964 685.03233672 812.25278856 C685.0659377 802.69990484 685.06720389 793.14737938 685.04158642 783.59447156 C685.02791408 778.14544394 685.02881015 772.69744862 685.06901157 767.24852943 C685.10534515 762.28515029 685.10048695 757.32360681 685.0623269 752.36025698 C685.05588192 750.57269561 685.0646388 748.7850008 685.0901859 746.99761038 C685.45660183 737.55482727 685.45660183 737.55482727 682.00169414 729.06412053 C679.74493086 727.01989268 677.53562424 725.41880578 674.94506836 723.83007812 C673.66431016 722.85826574 672.39044594 721.87718384 671.12866211 720.88085938 C669.88231712 719.96488872 668.63356339 719.05218765 667.38256836 718.14257812 C661.72354237 713.96527836 656.19567145 709.66615049 650.75756836 705.20507812 C644.96699571 700.45586951 639.10500366 695.83069458 633.15209961 691.28710938 C627.96075925 687.32214533 622.8417727 683.26420479 617.71118164 679.22119141 C614.79135794 676.9213358 611.86807748 674.62588286 608.94506836 672.33007812 C605.49077799 669.61671218 602.03690785 666.90282456 598.58569336 664.18554688 C592.0552095 659.0458142 585.50757477 653.9288747 578.94506836 648.83007812 C571.82177558 643.29557369 564.71810144 637.73699653 557.63061523 632.15673828 C554.73698009 629.87921607 551.84087513 627.60483805 548.94506836 625.33007812 C547.7783904 624.41342583 546.61172372 623.49675918 545.44506836 622.58007812 C544.86756836 622.12632812 544.29006836 621.67257812 543.69506836 621.20507812 C538.44506836 617.08007812 538.44506836 617.08007812 536.69604492 615.70581055 C535.5261682 614.786645 534.35624613 613.86753717 533.1862793 612.94848633 C530.31835679 610.69551719 527.45115846 608.44164089 524.58569336 606.18554688 C518.0552095 601.0458142 511.50757477 595.9288747 504.94506836 590.83007812 C497.82177558 585.29557369 490.71810144 579.73699653 483.63061523 574.15673828 C480.73698009 571.87921607 477.84087513 569.60483805 474.94506836 567.33007812 C473.7783904 566.41342583 472.61172372 565.49675918 471.44506836 564.58007812 C470.86756836 564.12632812 470.29006836 563.67257812 469.69506836 563.20507812 C464.44506836 559.08007812 464.44506836 559.08007812 462.69604492 557.70581055 C461.5261682 556.786645 460.35624613 555.86753717 459.1862793 554.94848633 C456.31835679 552.69551719 453.45115846 550.44164089 450.58569336 548.18554688 C444.0552095 543.0458142 437.50757477 537.9288747 430.94506836 532.83007812 C423.82177558 527.29557369 416.71810144 521.73699653 409.63061523 516.15673828 C406.73698009 513.87921607 403.84087513 511.60483805 400.94506836 509.33007812 C399.7783904 508.41342583 398.61172372 507.49675918 397.44506836 506.58007812 C396.86756836 506.12632812 396.29006836 505.67257812 395.69506836 505.20507812 C390.44506837 501.08007813 390.44506837 501.08007813 388.69604492 499.70581055 C387.5261682 498.786645 386.35624613 497.86753717 385.1862793 496.94848633 C382.31835679 494.69551719 379.45115846 492.44164089 376.58569336 490.18554688 C370.0552095 485.0458142 363.50757477 479.9288747 356.94506836 474.83007812 C349.82177558 469.29557369 342.71810144 463.73699653 335.63061523 458.15673828 C332.73698009 455.87921607 329.84087513 453.60483805 326.94506836 451.33007812 C325.7783904 450.41342583 324.61172372 449.49675918 323.44506836 448.58007812 C322.86756836 448.12632812 322.29006836 447.67257812 321.69506836 447.20507812 C302.44506836 432.08007813 302.44506836 432.08007813 300.69604492 430.70581055 C299.5261682 429.786645 298.35624613 428.86753717 297.1862793 427.94848633 C294.31835679 425.69551719 291.45115846 423.44164089 288.58569336 421.18554688 C282.0552095 416.0458142 275.50757477 410.9288747 268.94506836 405.83007812 C261.82177558 400.29557369 254.71810144 394.73699653 247.63061523 389.15673828 C244.73698009 386.87921607 241.84087513 384.60483805 238.94506836 382.33007812 C237.7783904 381.41342583 236.61172372 380.49675918 235.44506836 379.58007812 C234.86756836 379.12632812 234.29006836 378.67257812 233.69506836 378.20507812 C228.44506837 374.08007813 228.44506837 374.08007813 226.69604492 372.70581055 C225.5261682 371.786645 224.35624613 370.86753717 223.1862793 369.94848633 C220.31835679 367.69551719 217.45115846 365.44164089 214.58569336 363.18554688 C208.0552095 358.0458142 201.50757477 352.9288747 194.94506836 347.83007812 C187.82177558 342.29557369 180.71810144 336.73699653 173.63061523 331.15673828 C170.73698009 328.87921607 167.84087513 326.60483805 164.94506836 324.33007812 C163.7783904 323.41342583 162.61172372 322.49675918 161.44506836 321.58007812 C160.57881836 320.89945313 160.57881836 320.89945313 159.69506836 320.20507812 C154.44506836 316.08007812 154.44506836 316.08007812 152.69604492 314.70581055 C151.5261682 313.786645 150.35624613 312.86753717 149.1862793 311.94848633 C146.31835679 309.69551719 143.45115846 307.44164089 140.58569336 305.18554688 C134.0552095 300.0458142 127.50757477 294.9288747 120.94506836 289.83007812 C113.82177558 284.29557369 106.71810144 278.73699653 99.63061523 273.15673828 C96.73698009 270.87921607 93.84087513 268.60483805 90.94506836 266.33007812 C89.7783904 265.41342583 88.61172372 264.49675918 87.44506836 263.58007812 C86.57881836 262.89945313 86.57881836 262.89945313 85.69506836 262.20507812 C80.44506836 258.08007812 80.44506836 258.08007812 78.69604492 256.70581055 C77.5261682 255.786645 76.35624613 254.86753717 75.1862793 253.94848633 C72.31835679 251.69551719 69.45115846 249.44164089 66.58569336 247.18554688 C60.0552095 242.0458142 53.50757477 236.9288747 46.94506836 231.83007812 C39.82918497 226.30133048 32.73276606 220.74868981 25.65258789 215.17431641 C23.86377323 213.76607884 22.07445131 212.35848859 20.28491211 210.95117188 C19.67848877 210.47421875 19.07206543 209.99726563 18.44726562 209.50585938 C17.25448885 208.56871201 16.0609875 207.63248598 14.86669922 206.69726562 C12.28675158 204.67660734 9.71843268 202.64653515 7.17163086 200.58398438 C6.37499023 199.94332031 5.57834961 199.30265625 4.75756836 198.64257812 C3.74629883 197.81693359 3.74629883 197.81693359 2.71459961 196.97460938 C-2.17009445 193.81519357 -5.55575454 198.44588824 -9.17993164 201.51757812 Z " fill="#8FBB8F" transform="translate(865.054931640625,14.169921875)"/>
<path d="M0 0 C0 3.86253561 -1.33816829 5.13332386 -3.5625 8.25 C-5.7223144 11.62001714 -6.9396284 13.56985235 -7.5 17.5625 C-1.42738376 31.47891222 13.11631916 37.75972151 26.39624023 43.1171875 C74.54412958 61.75333258 127.40504161 68.93864759 178.51171875 74.20703125 C219.02768084 78.40122632 219.02768084 78.40122632 237 84 C237.74266113 84.22768066 238.48532227 84.45536133 239.25048828 84.68994141 C260.18695275 91.31333771 278.11834753 103.01234784 294 118 C294.73734375 118.67289063 295.4746875 119.34578125 296.234375 120.0390625 C344.75769326 165.98135319 352.23676896 243.92422473 360.62573242 306.2208252 C360.97983473 308.85026005 361.33629979 311.47936379 361.69335938 314.10839844 C362.2838741 318.46691194 362.86395298 322.82672398 363.4375 327.1875 C363.60145264 328.42669189 363.76540527 329.66588379 363.93432617 330.94262695 C364.15052612 332.63198364 364.15052612 332.63198364 364.37109375 334.35546875 C364.49411865 335.31090576 364.61714355 336.26634277 364.74389648 337.25073242 C365.01695073 340.18196585 365.0436871 343.05776859 365 346 C362.35196763 342.8443576 360.62447183 339.41357685 358.79150391 335.7565918 C345.28868096 308.90383842 324.74932102 285.34472911 301 267 C299.67451605 265.93647075 298.35040898 264.87122422 297.02734375 263.8046875 C273.62077993 245.07891403 247.68650531 230.49141418 221 217 C220.03384766 216.50886719 219.06769531 216.01773438 218.07226562 215.51171875 C190.73351026 201.70573836 162.13509036 191.29707591 133 182 C134.52753906 183.07314453 134.52753906 183.07314453 136.0859375 184.16796875 C143.75768239 189.56606076 151.40410265 194.99559398 159 200.5 C164.80565166 204.70687606 170.63515793 208.87603843 176.5 213 C183.19782638 217.71037086 189.84807447 222.48316721 196.48046875 227.28515625 C200.97568927 230.5395086 205.48031298 233.779723 210 237 C230.24197661 251.43591081 250.37030177 266.00519659 269.92041016 281.37011719 C271.90309477 282.92405033 273.8933158 284.46766472 275.88671875 286.0078125 C281.98764377 290.73469182 287.89035765 295.58730492 293.5703125 300.8203125 C296.162995 303.14622381 298.84360549 305.32337808 301.5625 307.5 C306.03065762 311.10865347 310.0768002 314.96328744 314.078125 319.078125 C316.03723288 321.11356029 316.03723288 321.11356029 318.625 323.0625 C321.46896381 325.38257574 323.67837184 328.01688861 326.0546875 330.8046875 C328.0723892 333.08169223 330.19385619 335.19215463 332.375 337.3125 C336.42994302 341.31957691 340.01597119 345.56627917 343.57421875 350.015625 C345.71220756 352.64593652 347.90732691 355.19888381 350.14331055 357.74462891 C389.87558314 403.13984692 421.87860023 457.96570921 445.125 513.5 C445.52153778 514.44643372 445.52153778 514.44643372 445.92608643 515.4119873 C449.58031371 524.17787666 452.88321396 533.03216432 456 542 C458.16011586 539.83988414 459.00969689 538.09808213 460.28515625 535.3359375 C460.72851318 534.38686523 461.17187012 533.43779297 461.62866211 532.45996094 C462.10182861 531.44192383 462.57499512 530.42388672 463.0625 529.375 C482.55386722 488.11864423 510.40182816 451.1760807 539.16430664 415.96240234 C542.66899608 411.66499171 546.10153132 407.31911486 549.5 402.9375 C554.89401575 396.00670235 560.64520773 389.41116757 566.42871094 382.80517578 C570.22080852 378.44862364 573.92748651 374.01883181 577.6484375 369.6015625 C579.0331547 367.96071264 580.42218891 366.32361195 581.8125 364.6875 C587.61814233 357.85219665 593.34818788 350.96359074 599 344 C590.15630302 348.90515004 581.56938842 354.11675348 573.05175781 359.56640625 C568.25733182 362.61968842 563.41340897 365.50450403 558.4375 368.25 C552.42333117 371.64779608 547.14458252 375.39390035 542 380 C541.10667969 380.79921875 540.21335937 381.5984375 539.29296875 382.421875 C525.5244622 395.4393721 517.58234835 411.01243308 512 429 C500.10276015 425.76004888 490.89886863 413.53419621 484.98339844 403.22900391 C477.21912675 388.85936413 473.94067744 374.32300824 477.98046875 358.29296875 C484.01948472 338.78764129 501.44930142 325.97532379 518.625 316.5625 C530.60156523 310.29956322 543.37479816 305.75951409 556 301 C557.68522544 300.36394312 559.3704466 299.7278749 561.05566406 299.09179688 C564.73676859 297.70297301 568.41811373 296.31478871 572.09960938 294.92700195 C573.04795654 294.5694986 573.99630371 294.21199524 574.97338867 293.84365845 C576.91325945 293.11249365 578.85320127 292.38151732 580.79321289 291.65072632 C694.50766875 250.24191832 694.50766875 250.24191832 792.58056641 181.35205078 C793.82505342 180.16664159 795.08878072 179.0014996 796.35546875 177.83984375 C808.35885848 166.49237695 817.49232692 152.61355938 825 138 C825.31614258 137.38592285 825.63228516 136.7718457 825.95800781 136.13916016 C827.67797938 132.77822311 829.35809605 129.39970699 831 126 C831.33 126 831.66 126 832 126 C832.27550449 133.78091468 831.24208925 141.08733837 829.9375 148.75 C829.82773834 149.40039246 829.71797668 150.05078491 829.60488892 150.72088623 C820.56608756 203.87920235 802.92547682 256.79627226 780.10644531 305.62695312 C778.9511206 308.10483401 777.81549505 310.59124462 776.6796875 313.078125 C765.00945237 338.37390475 750.73320416 362.70640348 734 385 C733.56864746 385.57556641 733.13729492 386.15113281 732.69287109 386.74414062 C725.9658615 395.65454252 718.74721566 403.96593279 711 412 C710.37931641 412.64791504 709.75863281 413.29583008 709.11914062 413.96337891 C684.95328079 439.07750422 655.79401516 457.99954329 621 464 C619.98808594 464.18433594 618.97617188 464.36867188 617.93359375 464.55859375 C592.75493574 467.38400423 568.15206372 464.22376113 545 454 C530.26665303 477.46668839 516.43702171 501.22880726 504 526 C503.55785156 526.87495117 503.11570312 527.74990234 502.66015625 528.65136719 C485.4313296 562.957649 473.51181912 598.40628655 478.9375 636.9375 C485.83674808 686.7465579 481.59727238 736.89268214 467 785 C467.55454865 785.01839432 468.10909729 785.03678864 468.68045044 785.05574036 C532.88963863 787.20427198 596.2961089 792.3141809 659 807 C660.19947266 807.28037109 661.39894531 807.56074219 662.63476562 807.84960938 C706.12824892 818.1813073 757.00560574 832.13164742 792.9977569 859.52021182 C798.66196228 863.72656341 802.71883666 864.86389285 809.7000885 864.7215271 C810.63474471 864.72665365 811.56940092 864.7317802 812.53238004 864.7370621 C815.64217777 864.74688973 818.75000254 864.71403849 821.85961914 864.68115234 C824.09737095 864.67945873 826.3351261 864.68041219 828.57287598 864.68380737 C834.63236091 864.68552597 840.69113046 864.65029675 846.75044942 864.60836363 C853.08851428 864.57080768 859.42659628 864.5673274 865.76475525 864.56021118 C876.39791668 864.54369273 887.03079621 864.50623827 897.66381836 864.45263672 C908.61237304 864.39750219 919.56085615 864.3551302 930.50952148 864.32958984 C931.5333633 864.32717787 931.5333633 864.32717787 932.57788879 864.32471716 C938.51585612 864.31083874 944.45382546 864.29792258 950.39179516 864.28510094 C975.92810966 864.2287153 1001.46373028 864.10917256 1027 864 C1027 931.32 1027 998.64 1027 1068 C629.35 1068 231.7 1068 -178 1068 C-178 1000.68 -178 933.36 -178 864 C-145.97195313 864.10054687 -145.97195313 864.10054687 -113.296875 864.203125 C-99.76168509 864.21883681 -86.22658976 864.2315822 -72.69140625 864.23046875 C-65.5782875 864.23003949 -58.46516939 864.23035956 -51.35205078 864.23193359 C-50.4606442 864.23209964 -49.56923761 864.23226569 -48.65081871 864.23243678 C-34.29476538 864.23620167 -19.93914624 864.28219865 -5.58323893 864.34402815 C9.1704127 864.4066219 23.92361132 864.42328984 38.67737651 864.39809489 C47.76789983 864.3839954 56.85691411 864.40491888 65.94720748 864.47190216 C72.19670017 864.51450661 78.44521268 864.51215143 84.69474003 864.47584674 C88.29105159 864.45623932 91.88460245 864.45510011 95.48064232 864.50784111 C112.89809593 864.74797919 125.00428084 862.99244036 139.12989473 852.37201357 C141.58614958 850.56996796 144.1782813 849.10023446 146.859375 847.66015625 C147.66673096 847.22437256 148.47408691 846.78858887 149.3059082 846.33959961 C223.91267222 807.35568366 311.68980368 792.93131624 415.38256836 786.34106445 C419.66944587 786.17050136 423.77557195 785.82311722 428 785 C443.87599551 741.42545913 447.13015083 696.1516624 443.27001953 650.24951172 C442.82010493 644.8350783 442.4113629 639.41747776 442 634 C441.34 634 440.68 634 440 634 C439.96261719 633.15759766 439.92523437 632.31519531 439.88671875 631.44726562 C439.38561369 622.5403689 438.03210881 614.19441015 436 605.5 C435.84760864 604.83969788 435.69521729 604.17939575 435.53820801 603.49908447 C426.52127061 564.57369143 412.58735842 526.70990686 394.15771484 491.24169922 C392.80310529 488.61875006 391.47466889 485.98309765 390.14453125 483.34765625 C371.23617452 446.13092798 348.00745378 411.60146962 322 379 C321.21238281 377.99453125 320.42476562 376.9890625 319.61328125 375.953125 C318.53626953 374.58414063 318.53626953 374.58414063 317.4375 373.1875 C316.50744141 372.00220703 316.50744141 372.00220703 315.55859375 370.79296875 C313.30401889 368.19936008 312.25472756 368.02448969 308.7800293 367.69042969 C307.37833278 367.59722396 305.97636678 367.50802219 304.57421875 367.421875 C302.99531045 367.31544944 301.41645517 367.20823506 299.83764648 367.1003418 C298.58043289 367.01567154 298.58043289 367.01567154 297.29782104 366.92929077 C237.67295712 362.83393711 178.42389011 351.50245108 124 326 C123.13052734 325.59281738 122.26105469 325.18563477 121.36523438 324.76611328 C95.40605843 312.47402415 71.69621349 296.62104803 50.4765625 277.25390625 C48.79747795 275.7257804 47.10419177 274.21314142 45.3984375 272.71484375 C40.15654564 268.09849488 35.47478093 263.35309537 31 258 C29.78570312 256.61748047 29.78570312 256.61748047 28.546875 255.20703125 C-12.5933769 208.17462681 -31.91167929 147.05674735 -29 85 C-27.40351167 61.48527185 -22.51436789 35.182602 -10.046875 14.78125 C-8.98720869 12.97823569 -8.24417871 11.20140196 -7.5 9.25 C-5.84675852 5.6679768 -3.92102719 3.61355064 -1 1 C-0.67 0.67 -0.34 0.34 0 0 Z " fill="#8FBB8F" transform="translate(440,679)"/>
<path d="M0 0 C0 4.08481881 -1.70119331 5.84704653 -4 9.1875 C-4.7425 10.27417969 -5.485 11.36085938 -6.25 12.48046875 C-6.8275 13.31191406 -7.405 14.14335938 -8 15 C-8.33 14.34 -8.66 13.68 -9 13 C-7.22297777 7.76765676 -5.18351141 4.74314179 -1 1 C-0.67 0.67 -0.34 0.34 0 0 Z " fill="#98BF98" transform="translate(440,679)"/>
</svg>
