<?xml version="1.0" encoding="UTF-8"?>
<svg version="1.1" xmlns="http://www.w3.org/2000/svg" width="800" height="300">
<path d="M0 0 C3.86381885 1.9490667 6.60008341 4.44070081 9.5234375 7.59765625 C11.24187622 9.42884321 13.03239686 11.05287447 14.9375 12.6875 C18.38364482 15.65464399 21.72935079 18.71990379 25.0625 21.8125 C29.94999712 26.34681587 35.00929506 30.55457651 40.265625 34.66015625 C41.24789062 35.53994141 41.24789062 35.53994141 42.25 36.4375 C42.25 37.0975 42.25 37.7575 42.25 38.4375 C43.1315979 38.83473267 43.1315979 38.83473267 44.03100586 39.23999023 C46.3236135 40.47722651 47.88663896 41.79063177 49.75390625 43.59765625 C50.73315063 44.53424072 50.73315063 44.53424072 51.73217773 45.48974609 C52.41868408 46.15312988 53.10519043 46.81651367 53.8125 47.5 C59.30216804 52.73671945 64.86261759 57.66453976 70.796875 62.390625 C74.1252537 65.16780723 77.11564102 68.22024027 80.140625 71.3203125 C82.70574185 73.89492979 85.40513372 76.26512977 88.16015625 78.6328125 C92.25098367 82.16545226 96.23810228 85.81581725 100.25 89.4375 C102.74623632 91.68489033 105.24322859 93.93141847 107.7421875 96.17578125 C109.44110717 97.70798451 111.13364716 99.24728608 112.8203125 100.79296875 C116.63819585 104.2781008 120.40945695 107.6272805 124.625 110.625 C129.04282535 113.83796389 131.50228595 117.19435784 133.25 122.4375 C133.86301462 130.34639355 134.41701642 137.98594598 129.25 144.4375 C123.67307368 150.40599774 118.72658335 153.36244029 110.5 153.875 C101.96671425 153.64506116 96.05459331 149.36872201 89.9375 143.74609375 C89.05449219 142.93841553 88.17148438 142.1307373 87.26171875 141.29858398 C86.26591797 140.37734741 86.26591797 140.37734741 85.25 139.4375 C85.24413376 140.72345062 85.23826752 142.00940125 85.23222351 143.33432007 C85.17510589 155.43049316 85.10240218 167.52648458 85.01428509 179.62247276 C84.96948405 185.84172658 84.93024955 192.06091341 84.90356445 198.28027344 C84.87762842 204.27798675 84.8372954 210.2754436 84.78681374 216.27299881 C84.77007916 218.5655868 84.75860613 220.85821921 84.75238609 223.15085983 C84.74281649 226.35263964 84.71484339 229.55375343 84.68237305 232.75537109 C84.68380814 233.71130661 84.68524323 234.66724213 84.6867218 235.65214539 C84.67418365 236.52155258 84.66164551 237.39095978 84.64872742 238.28671265 C84.64411845 239.04442648 84.63950949 239.80214031 84.63476086 240.58281517 C84.25 242.4375 84.25 242.4375 81.25 244.4375 C78.76819119 244.63045575 76.39912821 244.70715423 73.91734314 244.69146729 C73.16481736 244.69458727 72.41229159 244.69770725 71.636962 244.70092177 C69.10807471 244.70891758 66.57942631 244.70257205 64.05053711 244.69628906 C62.24055338 244.6989982 60.43057074 244.7025587 58.62059021 244.70690918 C53.69927553 244.71604398 48.7780445 244.7124846 43.85672832 244.70615101 C38.71401791 244.70109744 33.5713148 244.70578059 28.42860413 244.70892334 C19.79247752 244.71256454 11.15638509 244.70775952 2.52026367 244.69824219 C-7.47553814 244.68735391 -17.4712584 244.69088532 -27.46705824 244.701895 C-36.03863604 244.7109594 -44.61018923 244.71225741 -53.18177027 244.70701766 C-58.30592241 244.70389373 -63.43003616 244.70350024 -68.55418587 244.71009064 C-73.36976265 244.7158513 -78.18523385 244.71189078 -83.00079918 244.70030212 C-84.77216033 244.69764881 -86.54353031 244.698432 -88.314888 244.70282745 C-90.7248225 244.70825792 -93.13441437 244.70147957 -95.54432678 244.69146729 C-96.25238923 244.69592873 -96.96045167 244.70039017 -97.68997055 244.70498681 C-102.52169958 244.66580042 -102.52169958 244.66580042 -104.75 242.4375 C-105.01171303 240.58281517 -105.01171303 240.58281517 -105.0284729 238.28671265 C-105.03963638 237.41730545 -105.05079987 236.54789825 -105.06230164 235.65214539 C-105.06446182 234.69620987 -105.06662201 233.74027435 -105.06884766 232.75537109 C-105.07889328 231.75046127 -105.0889389 230.74555145 -105.09928894 229.71018982 C-105.1302653 226.37711172 -105.14719618 223.04411446 -105.1640625 219.7109375 C-105.18276252 217.40450335 -105.20233504 215.09807612 -105.2227478 212.79165649 C-105.27419815 206.71224031 -105.31375471 200.63280192 -105.35089111 194.55328369 C-105.39085005 188.35317431 -105.44197928 182.15315836 -105.4921875 175.953125 C-105.58909949 163.78131551 -105.67345523 151.60945342 -105.75 139.4375 C-106.49113037 140.1289209 -107.23226074 140.8203418 -107.99584961 141.53271484 C-108.98530815 142.44651236 -109.97498443 143.36007414 -110.96484375 144.2734375 C-111.45126343 144.728396 -111.93768311 145.18335449 -112.43884277 145.65209961 C-118.08149192 150.8392777 -123.18349617 153.56177134 -130.875 153.875 C-139.26667084 153.4605965 -145.15991137 149.45565848 -150.75 143.4375 C-154.69519939 137.27312596 -154.50628465 130.591063 -153.75 123.4375 C-151.35331516 113.57879641 -141.15807146 106.51204119 -133.8046875 100.20703125 C-129.72170725 96.69070035 -125.74956075 93.04804572 -121.75 89.4375 C-119.25312008 87.18953023 -116.75546849 84.94241993 -114.2578125 82.6953125 C-112.56407106 81.17041756 -110.87138831 79.64434598 -109.1796875 78.1171875 C-105.43435744 74.73837292 -101.68481793 71.36854035 -97.875 68.0625 C-94.56808349 65.18548263 -91.34294561 62.2255549 -88.125 59.25 C-83.79333524 55.24899668 -79.37338975 51.37471596 -74.875 47.5625 C-69.30218122 42.83596991 -63.91542059 37.94161199 -58.58300781 32.94628906 C-55.05000371 29.63747559 -51.47020911 26.40428984 -47.8046875 23.2421875 C-45.08074005 20.84967092 -42.41706515 18.39291292 -39.75 15.9375 C-37.75078761 14.10330592 -35.75033733 12.27046768 -33.75 10.4375 C-32.99074219 9.73753906 -32.23148437 9.03757812 -31.44921875 8.31640625 C-22.39331134 0.13971315 -12.1708649 -4.89344053 0 0 Z M-26.765625 17.375 C-28.6033704 19.28509758 -30.49105631 21.0233046 -32.5 22.75 C-35.98078231 25.74429502 -39.37421565 28.82595772 -42.75 31.9375 C-46.70568117 35.57940392 -50.6956221 39.17250008 -54.7578125 42.6953125 C-57.11020635 44.75250399 -59.43034966 46.84346915 -61.75 48.9375 C-64.68678465 51.58863994 -67.63602542 54.22040171 -70.625 56.8125 C-74.591749 60.26533819 -78.45682669 63.82627381 -82.32543945 67.38793945 C-85.73598806 70.52267052 -89.19159116 73.59476302 -92.69140625 76.62890625 C-95.2395665 78.8676125 -97.74410593 81.15160212 -100.25 83.4375 C-104.00672957 86.86396763 -107.79608014 90.24248463 -111.63671875 93.57421875 C-115.25150059 96.7613739 -118.7873526 100.03607721 -122.33203125 103.30078125 C-124.75 105.4375 -124.75 105.4375 -127.75 107.4375 C-127.75 108.0975 -127.75 108.7575 -127.75 109.4375 C-128.3171875 109.69144531 -128.884375 109.94539063 -129.46875 110.20703125 C-136.13067998 113.80036677 -141.87479829 119.43700888 -144.75 126.4375 C-145.54329329 130.72128378 -145.06513861 133.81889459 -143.0625 137.75 C-139.79410301 141.54840732 -137.23991131 143.01582699 -132.4375 144.375 C-124.79599757 144.50451699 -119.63385414 139.7736241 -114.39453125 134.74023438 C-113.33298828 133.69319336 -113.33298828 133.69319336 -112.25 132.625 C-110.82425659 131.2421068 -109.39717934 129.86058741 -107.96875 128.48046875 C-107.27136719 127.80483887 -106.57398438 127.12920898 -105.85546875 126.43310547 C-102.57904383 123.32764428 -99.16405797 120.3895085 -95.75 117.4375 C-94.07947538 115.94179773 -92.41219168 114.44245734 -90.75 112.9375 C-87.81321535 110.28636006 -84.86397458 107.65459829 -81.875 105.0625 C-77.96005417 101.65270847 -74.13822604 98.14410037 -70.31738281 94.62988281 C-65.4945214 90.19552125 -60.62596508 85.8133661 -55.75 81.4375 C-54.904375 80.674375 -54.05875 79.91125 -53.1875 79.125 C-49.41826344 75.72349383 -45.64362388 72.33175132 -41.8125 69 C-38.58440488 66.18927475 -35.41261557 63.321701 -32.25 60.4375 C-28.37735436 56.90766117 -24.49403765 53.39614058 -20.5234375 49.9765625 C-19.364729 48.97098729 -18.22297485 47.94544334 -17.1015625 46.8984375 C-14.75812058 44.76911718 -13.24437523 43.50648259 -10.0625 43.0625 C-7.75 43.4375 -7.75 43.4375 -4.75 44.4375 C-4.75 45.0975 -4.75 45.7575 -4.75 46.4375 C-3.30316948 47.94023886 -3.30316948 47.94023886 -1.375 49.5 C1.83342938 52.2282947 4.99980367 54.98894446 8.125 57.8125 C8.96546875 58.57046875 9.8059375 59.3284375 10.671875 60.109375 C12.390625 61.66145833 14.109375 63.21354167 15.828125 64.765625 C20.21934896 68.72580857 24.63003517 72.65748448 29.09765625 76.53125 C30.79103451 78.03101151 32.46067392 79.55757927 34.12109375 81.09375 C34.61810791 81.55338135 35.11512207 82.0130127 35.62719727 82.48657227 C37.06489135 83.81928071 38.49740659 85.15756939 39.9296875 86.49609375 C42.00142036 88.65140238 42.00142036 88.65140238 44.25 88.4375 C44.58 89.4275 44.91 90.4175 45.25 91.4375 C46.77069973 93.01766767 46.77069973 93.01766767 48.6875 94.5625 C51.87671753 97.26850275 55.02158597 100.00815115 58.125 102.8125 C58.97449219 103.57820313 59.82398438 104.34390625 60.69921875 105.1328125 C62.32850623 106.60490992 63.95626674 108.07870029 65.58203125 109.5546875 C71.14604409 114.59274888 76.79737094 119.51866501 82.49291992 124.40673828 C85.67677599 127.15345256 88.80824487 129.93394288 91.85546875 132.83203125 C92.4280542 133.37496826 93.00063965 133.91790527 93.59057617 134.47729492 C94.660072 135.49895689 95.72208567 136.52853814 96.7746582 137.56762695 C100.78764021 141.39998161 104.98222062 144.44265423 110.7265625 144.43359375 C116.19708962 143.0112567 120.05858901 141.35938132 123.5625 136.6875 C125.1304272 131.5561019 124.78648964 127.7116629 122.75 122.875 C120.53899297 119.45448738 117.73839701 116.9918416 114.61328125 114.4140625 C110.79605343 111.22147196 107.20529102 107.7759405 103.5703125 104.37890625 C101.49857964 102.22359762 101.49857964 102.22359762 99.25 102.4375 C99.25 101.7775 99.25 101.1175 99.25 100.4375 C97.87042584 99.00282984 97.87042584 99.00282984 96 97.5 C92.39398884 94.44093233 88.9001193 91.28168869 85.4375 88.0625 C81.72578925 84.62777392 77.95720334 81.34136131 74 78.1875 C68.4307852 73.70949565 63.25816621 68.85366434 58.08300781 63.92871094 C54.16671345 60.20576511 50.18175828 56.59055273 46.1003418 53.04931641 C43.61455654 50.88397081 41.1812753 48.66372798 38.75 46.4375 C35.67441528 43.63118672 32.58953227 40.84506211 29.4375 38.125 C25.62600983 34.81646936 21.94051217 31.3793933 18.25 27.9375 C10.86977385 21.05338104 10.86977385 21.05338104 3.25 14.4375 C2.59773437 13.87160156 1.94546875 13.30570313 1.2734375 12.72265625 C-2.52843013 9.60336331 -5.74266239 7.45934266 -10.75 7.21484375 C-17.69303881 7.98779924 -22.1594444 12.51887161 -26.765625 17.375 Z M-10.75 53.4375 C-11.69359375 54.29021484 -11.69359375 54.29021484 -12.65625 55.16015625 C-16.6661265 58.77749966 -20.67745355 62.39071262 -24.75 65.9375 C-30.27068377 70.74869831 -35.69916808 75.66355876 -41.1171875 80.58984375 C-45.25074368 84.3371496 -49.42345995 88.02432752 -53.67822266 91.6328125 C-60.13616902 97.11032682 -66.38813034 102.76191641 -72.55419922 108.56591797 C-75.68301967 111.51035121 -78.81919881 114.43087301 -82.0625 117.25 C-82.60435944 117.7448439 -83.14621887 118.23968781 -83.70449829 118.74952698 C-85.75 120.4375 -85.75 120.4375 -88.26327515 121.8714447 C-92.31230232 124.55608784 -95.14823108 126.96235866 -96.30893707 131.73646927 C-97.1969596 138.96158971 -96.89482441 146.24294566 -96.7265625 153.50390625 C-96.70789522 155.86755881 -96.69366818 158.23125025 -96.6836853 160.59495544 C-96.64562942 166.79542168 -96.54751022 172.99351939 -96.43664551 179.1930542 C-96.31601768 186.64247949 -96.270387 194.09269994 -96.21211243 201.54282379 C-96.11536412 212.84269294 -95.92369965 224.1373727 -95.75 235.4375 C-67.04 235.4375 -38.33 235.4375 -8.75 235.4375 C-8.75 225.5375 -8.75 215.6375 -8.75 205.4375 C-11.410625 205.375625 -14.07125 205.31375 -16.8125 205.25 C-29.99661594 204.65306954 -41.52407197 201.08322245 -51.75 192.4375 C-52.44480469 191.86515625 -53.13960937 191.2928125 -53.85546875 190.703125 C-64.72265063 180.86590813 -71.44601043 165.35969031 -73.0234375 150.9375 C-73.2993475 144.14586915 -73.2993475 144.14586915 -70.375 140.375 C-64.03161056 135.69297446 -55.35445001 136.744941 -47.75 137.4375 C-32.6255284 140.0413833 -17.55270394 148.17351624 -8.41796875 160.61328125 C-6.4448124 163.50303065 -4.57590688 166.45236613 -2.75 169.4375 C-0.16367299 167.40783277 2.23563947 165.45265834 4.5 163.0625 C14.12782183 153.87230643 26.0139639 149.35865564 39.25 149.1875 C40.44625 149.16171875 41.6425 149.1359375 42.875 149.109375 C46.51707081 149.46346522 48.35614334 150.24582914 51.25 152.4375 C54.11570739 158.16891478 52.03429928 165.70619537 50.29296875 171.53515625 C45.68407551 184.36065316 39.21583173 193.69312211 27.25 200.4375 C18.29995601 204.12674603 10.98551724 205.4375 1.25 205.4375 C1.25 215.3375 1.25 225.2375 1.25 235.4375 C25.67 235.4375 50.09 235.4375 75.25 235.4375 C75.62849047 216.89088072 75.62849047 216.89088072 75.88476562 198.34375 C75.96231213 190.77157315 76.05376574 183.20145083 76.23071289 175.63085938 C76.37257375 169.52278512 76.44981733 163.41691477 76.48340416 157.30731964 C76.50731894 154.98353641 76.55402407 152.65986618 76.62449074 150.3370285 C77.48063605 137.0954494 77.48063605 137.0954494 72.41659546 125.39245605 C69.31574022 122.26786225 65.91096933 119.86675809 62.25 117.4375 C60.83329267 116.23245157 59.43079757 115.00974726 58.0625 113.75 C57.44632813 113.21632812 56.83015625 112.68265625 56.1953125 112.1328125 C50.25414864 106.9551717 44.44900259 101.62096156 38.625 96.3125 C35.54690434 93.50992619 32.4569813 90.72782125 29.3125 88 C25.36332633 84.56981424 21.51977695 81.02746482 17.67211914 77.48461914 C14.29136266 74.37701199 10.86600205 71.3328295 7.390625 68.33203125 C5.64736359 66.78918128 3.93642162 65.2243465 2.234375 63.63671875 C1.70070313 63.14042969 1.16703125 62.64414063 0.6171875 62.1328125 C-0.43857082 61.14845812 -1.49082875 60.16033218 -2.5390625 59.16796875 C-5.11988091 56.76466695 -7.47239781 54.78755995 -10.75 53.4375 Z M-63.75 145.4375 C-65.31435055 149.43528473 -64.21284778 153.00686087 -63.1875 157 C-63.00477539 157.71164307 -62.82205078 158.42328613 -62.63378906 159.15649414 C-59.09591197 172.11360351 -51.6201724 183.06429772 -40.08203125 190.16015625 C-31.81678236 194.68735288 -23.22778767 197.12714423 -13.75 197.4375 C-10.98482277 196.45453002 -10.06674101 196.07098201 -8.75 193.4375 C-7.77721496 182.60928619 -9.47098062 173.66776163 -15.8125 164.75 C-23.92079959 155.08573673 -37.01275519 146.91459226 -49.75 145.4375 C-54.42220805 145.29070256 -59.07748413 145.3193746 -63.75 145.4375 Z M5.9140625 174.2265625 C0.88736143 180.90523106 0.58505044 187.33023035 1.25 195.4375 C2.90594802 197.09344802 4.78092512 196.72763455 7.0625 196.8125 C17.6303241 196.6619222 25.66881261 191.9908748 33.125 184.76171875 C39.92519006 177.32401087 43.41530603 168.45382763 44.25 158.4375 C42.67450967 156.86200967 41.12613745 157.19132235 38.9375 157.125 C25.44568465 157.2984662 14.35803901 164.10051895 5.9140625 174.2265625 Z " fill="#FEFEFE" transform="translate(161.75,28.5625)"/>
<path d="M0 0 C2.97 0 5.94 0 9 0 C12.20431422 7.7487976 14.09814726 15.82362231 16.125 23.9375 C16.66284777 26.08528621 17.20205134 28.23268631 17.74557495 30.37904358 C18.23385271 32.30770436 18.71691513 34.23768327 19.19970703 36.16772461 C19.71723507 38.87996531 19.71723507 38.87996531 21 40 C21.44653931 38.28901123 21.44653931 38.28901123 21.90209961 36.54345703 C23.00500469 32.31988794 24.11082155 28.09708583 25.2175293 23.87451172 C25.69651746 22.04529343 26.17471097 20.21586686 26.65209961 18.38623047 C27.3376013 15.75954174 28.02593794 13.13361019 28.71484375 10.5078125 C28.92842026 9.68693146 29.14199677 8.86605042 29.36204529 8.02029419 C30.88612829 2.22774341 30.88612829 2.22774341 32 0 C35.63 0 39.26 0 43 0 C44.08634977 3.90977783 45.17063428 7.82012247 46.25317383 11.73095703 C46.62014764 13.0556508 46.98764307 14.38020019 47.35571289 15.70458984 C47.89092919 17.63078438 48.42398367 19.55757917 48.95703125 21.484375 C49.27647705 22.63647461 49.59592285 23.78857422 49.92504883 24.97558594 C51.34734111 30.30037947 52.6632713 35.6530852 54 41 C57.63 27.47 61.26 13.94 65 0 C68.3 0 71.6 0 75 0 C72.05898444 12.94110873 68.72003005 25.75417316 65.25 38.5625 C64.73803291 40.46021948 64.22631281 42.35800561 63.71484375 44.25585938 C62.47939707 48.83800986 61.24065147 53.41925614 60 58 C56.37 58 52.74 58 49 58 C45.79183675 50.2275414 43.8653898 42.13221153 41.8125 34 C41.44116538 32.54286416 41.069424 31.08583192 40.69726562 29.62890625 C39.79348164 26.08712028 38.89521949 22.5439617 38 19 C35.66962993 22.49555511 34.85753623 25.89652274 33.87109375 29.9140625 C33.5792495 31.06943008 33.5792495 31.06943008 33.2815094 32.24813843 C32.66133736 34.70574826 32.04885118 37.16518231 31.4375 39.625 C30.82177455 42.09173957 30.20437234 44.55801721 29.58277893 47.02328491 C29.19629321 48.557065 28.81333966 50.09174013 28.43418884 51.62734985 C27.11209107 56.88790893 27.11209107 56.88790893 26 58 C24.14712498 58.07226502 22.29166122 58.0838122 20.4375 58.0625 C19.42558594 58.05347656 18.41367187 58.04445313 17.37109375 58.03515625 C16.19740234 58.01775391 16.19740234 58.01775391 15 58 C13.03975632 50.88193081 11.08361988 43.76274651 9.13272858 36.64210796 C8.22673651 33.33579706 7.31933078 30.02988774 6.40869141 26.72485352 C5.36199899 22.92579259 4.32146002 19.12505996 3.28125 15.32421875 C2.95314331 14.13664474 2.62503662 12.94907074 2.2869873 11.72550964 C1.98667603 10.62459488 1.68636475 9.52368011 1.37695312 8.3894043 C1.11047974 7.41899704 0.84400635 6.44858978 0.56945801 5.44877625 C0 3 0 3 0 0 Z " fill="#FEFEFE" transform="translate(331,201)"/>
<path d="M0 0 C0.33 -0.66 0.66 -1.32 1 -2 C3.97 -2 6.94 -2 10 -2 C10.04971295 3.95905361 10.0858671 9.91798449 10.10986328 15.87719727 C10.11987483 17.90130722 10.1334881 19.92540289 10.15087891 21.94946289 C10.17534141 24.87129256 10.18653184 27.79292978 10.1953125 30.71484375 C10.20563507 31.60896469 10.21595764 32.50308563 10.22659302 33.42430115 C10.22805499 41.7494266 9.65126088 49.42100674 3.69140625 55.625 C-1.51658069 59.85874458 -8.62907986 59.49243827 -15 59 C-20.04221708 58.00808844 -23.30060219 56.59370073 -27 53 C-28.3125 50.75 -28.3125 50.75 -29 49 C-26.525 46.525 -26.525 46.525 -24 44 C-21.45415519 45.17500529 -19.44445557 46.41974468 -17.1875 48.125 C-13.37840902 50.36564175 -11.3533329 50.55406055 -7 50 C-4.03341197 48.68151643 -2.4681466 47.71336625 -0.6875 45 C0.16253988 42.87963429 0.16253988 42.87963429 0 40 C-0.825 40.495 -1.65 40.99 -2.5 41.5 C-7.65250435 43.70821615 -11.71185465 43.50339198 -17.125 42.3125 C-23.06256106 39.6018743 -26.60305269 36.05544583 -29 30 C-31.41907061 22.08304165 -30.52008418 13.40920944 -27 6 C-24.37482507 1.44571926 -21.05733627 -0.9670292 -16.11328125 -2.53125 C-10.04380572 -3.87752923 -5.42148301 -3.2528898 0 0 Z M-19 10 C-20.91615465 15.74846395 -21.23924176 23.41069355 -19.24609375 29.18359375 C-17.41328764 32.0657712 -15.3071101 34.14960026 -12 35 C-8.098627 34.86066525 -5.7889339 34.6183536 -2.6875 32.1875 C1.54647729 26.69901092 1.64822764 21.77692537 1 15 C-0.14045989 11.54567526 -0.14045989 11.54567526 -2 9 C-2.391875 8.401875 -2.78375 7.80375 -3.1875 7.1875 C-9.68277454 2.9319753 -14.24717144 4.89940349 -19 10 Z " fill="#FFFFFF" transform="translate(700,216)"/>
<path d="M0 0 C3.72097048 2.48064699 6.18886104 4.87462791 8 9 C7.9375 11.6875 7.9375 11.6875 7 14 C4.89742297 15.59505843 3.62875357 16 1 16 C-2.05575719 14.4721214 -3.20409359 11.83869078 -5 9 C-8.82320512 6.45119659 -11.649415 5.54702268 -16.25 6.43359375 C-19.93582215 7.50660447 -22.5239645 8.58499469 -25.4375 11.125 C-30.01282408 19.54359631 -29.82194284 28.91826411 -27.64453125 38.01953125 C-26.86111157 40.42676628 -25.66459685 42.10841267 -24 44 C-24 44.66 -24 45.32 -24 46 C-17.32454975 47.77829617 -12.54124491 48.48116186 -6 46 C-3.34616091 44.23077394 -2.24403355 43.08876509 -1.54296875 39.9609375 C-1.28087741 37.98302153 -1.13271907 35.99078605 -1 34 C-5.62 34 -10.24 34 -15 34 C-15 31.36 -15 28.72 -15 26 C-7.08 26 0.84 26 9 26 C9.02291394 30.11177927 9.04283951 34.22339658 9.05493164 38.33520508 C9.0599708 39.73495228 9.06680216 41.1346942 9.07543945 42.53442383 C9.0875232 44.54245777 9.09269807 46.55052957 9.09765625 48.55859375 C9.10289307 49.76829834 9.10812988 50.97800293 9.11352539 52.22436523 C9 55 9 55 8 56 C5.66702567 56.04092937 3.33294775 56.04241723 1 56 C1 54.68 1 53.36 1 52 C-0.093125 52.639375 -1.18625 53.27875 -2.3125 53.9375 C-8.33192049 57.45829312 -14.36795738 57.97603755 -21.1875 56.5390625 C-27.92128858 54.30323426 -33.06776645 50.24265748 -36.375 43.9375 C-40.35829718 35.46866381 -40.3203799 23.96811715 -38.31640625 14.91015625 C-35.98340844 8.62751898 -32.62893071 3.1492964 -26.77734375 -0.31640625 C-18.01018602 -4.30400414 -8.58661471 -4.57691991 0 0 Z " fill="#FEFEFF" transform="translate(355,107)"/>
<path d="M0 0 C31.52 0 31.52 0 39.5 7.125 C45.91530281 15.93213536 45.78248314 26.5633667 45 37 C43.97271142 42.85852254 42.37382992 47.76726136 38 52 C37.34 52 36.68 52 36 52 C36 52.66 36 53.32 36 54 C23.9548693 60.44274433 15.38176637 58 0 58 C0 38.86 0 19.72 0 0 Z M9 8 C9 21.86 9 35.72 9 50 C21.16922344 50.72733446 21.16922344 50.72733446 31.4375 45.625 C36.43586093 37.22775364 36.75818305 28.97929955 34.73046875 19.453125 C33.4839012 15.26679119 31.78581031 12.25006722 28.125 9.6875 C21.60259428 7.57730991 16.10008981 8 9 8 Z " fill="#FFFEFF" transform="translate(516,201)"/>
<path d="M0 0 C2.64 0 5.28 0 8 0 C8.33 6.27 8.66 12.54 9 19 C11.31 18.01 13.62 17.02 16 16 C21.86125548 15.02946744 26.81844545 16.05362584 32 19 C38.51619288 25.86841952 39.32717612 33.00120865 39.21484375 42.1875 C38.66661062 49.36437003 36.26093195 55.08979685 31 60 C25.80656129 62.94220562 20.87774617 63.56881415 15 63 C11.5 61.5 11.5 61.5 9 60 C8.67 60.66 8.34 61.32 8 62 C1.84765625 62.09765625 1.84765625 62.09765625 0 62 C-1.75518106 60.24481894 -1.12760783 57.77650285 -1.12939453 55.39453125 C-1.13254669 54.19658936 -1.13569885 52.99864746 -1.13894653 51.7644043 C-1.1369223 50.46027588 -1.13489807 49.15614746 -1.1328125 47.8125 C-1.1334856 46.47110985 -1.13445568 45.12971981 -1.13571167 43.78833008 C-1.13718836 40.97378379 -1.13503504 38.15926918 -1.13037109 35.34472656 C-1.12467381 31.72959369 -1.12795297 28.11453505 -1.13394356 24.49940491 C-1.13754997 21.72855058 -1.13641022 18.95771398 -1.13381577 16.18685913 C-1.13282033 14.20310417 -1.13586741 12.21934853 -1.13894653 10.2355957 C-1.13579437 9.03765381 -1.13264221 7.83971191 -1.12939453 6.60546875 C-1.12859894 5.54481201 -1.12780334 4.48415527 -1.12698364 3.39135742 C-1 1 -1 1 0 0 Z M10.25 29 C7.16773024 33.93163161 7.54176078 39.38054007 8 45 C9.34069859 48.57519623 10.78731562 51.81996417 14 54 C17.80881219 54.98746983 20.07378117 55.3789077 23.75 53.875 C27.41907164 50.8174403 28.86331366 48.22079659 29.3984375 43.44140625 C29.39070313 42.16136719 29.38296875 40.88132812 29.375 39.5625 C29.38273437 38.28503906 29.39046875 37.00757813 29.3984375 35.69140625 C28.976087 31.77845312 28.03807419 29.34184225 26 26 C20.32428712 21.83781055 14.57303584 24.05938762 10.25 29 Z " fill="#FFFFFF" transform="translate(450,197)"/>
<path d="M0 0 C2.97 0 5.94 0 9 0 C9 6.93 9 13.86 9 21 C10.98 19.68 12.96 18.36 15 17 C19.96381386 15.01447445 25.42203009 15.40453966 30.3125 17.25 C34.0772859 19.70148849 35.5889566 21.76686981 37 26 C37.08507079 28.7315956 37.11591565 31.43691443 37.09765625 34.16796875 C37.0962413 34.96278152 37.09482635 35.7575943 37.09336853 36.57649231 C37.08777378 39.11353325 37.07522228 41.65048575 37.0625 44.1875 C37.05748432 45.90820185 37.05292153 47.62890508 37.04882812 49.34960938 C37.03780607 53.5664403 37.02054506 57.78320516 37 62 C34.03 62 31.06 62 28 62 C27.67 50.12 27.34 38.24 27 26 C17.70833333 25 17.70833333 25 14 28.25 C10.70604352 32.77919016 9.74587223 35.64584776 9.5859375 41.296875 C9.52792969 43.10478516 9.52792969 43.10478516 9.46875 44.94921875 C9.4378125 46.20347656 9.406875 47.45773438 9.375 48.75 C9.33632813 50.01972656 9.29765625 51.28945312 9.2578125 52.59765625 C9.16355778 55.7316257 9.07794834 58.86558949 9 62 C6.03 62 3.06 62 0 62 C0 41.54 0 21.08 0 0 Z " fill="#FEFFFF" transform="translate(533,101)"/>
<path d="M0 0 C5.18980723 3.53850493 8.46936212 7.70465386 9.75 13.875 C9.75 17.505 9.75 21.135 9.75 24.875 C0.51 25.205 -8.73 25.535 -18.25 25.875 C-16.09853607 33.34535005 -16.09853607 33.34535005 -13.125 35.9375 C-8.98980548 37.285933 -5.4038962 37.18471727 -1.25 35.875 C1.33917968 33.49925779 1.33917968 33.49925779 2.75 30.875 C5.71175123 31.48777612 7.13058783 32.12872522 9.75 33.875 C9.27300119 38.16798926 6.95196975 40.16028652 3.75 42.875 C-1.61058237 45.86455555 -6.24225009 46.64330905 -12.25 45.875 C-17.78310478 44.18693414 -21.95202779 41.63207507 -25.25 36.875 C-29.30808943 27.90448653 -29.22460963 19.330015 -26.1640625 10.10546875 C-24.09855511 5.06527763 -21.05871279 2.2793564 -16.25 -0.125 C-10.78988786 -1.75623682 -5.38902828 -1.86543287 0 0 Z M-15.25 8.875 C-17.36057699 11.81473224 -18.25 13.22148137 -18.25 16.875 C-11.98 16.875 -5.71 16.875 0.75 16.875 C0.34834943 11.0898635 0.34834943 11.0898635 -2.4375 8.5 C-6.81726415 5.9694696 -11.07667057 5.85293386 -15.25 8.875 Z " fill="#FFFFFF" transform="translate(594.25,214.125)"/>
<path d="M0 0 C5.88764908 3.97074008 8.12209184 9.07894282 9.6875 15.8125 C10.0818662 22.02376761 10.0818662 22.02376761 8.6875 24.8125 C-0.5525 24.8125 -9.7925 24.8125 -19.3125 24.8125 C-17.9925 28.1125 -16.6725 31.4125 -15.3125 34.8125 C-10.81751861 36.61049255 -8.92639347 37.2931139 -4.3125 36.8125 C-0.81843231 35.14487678 0.51420681 34.07243978 2.6875 30.8125 C5.57325819 31.21053561 6.50939513 31.60259069 8.4375 33.875 C8.85 34.514375 9.2625 35.15375 9.6875 35.8125 C7.3022757 40.86356323 4.52957824 42.39146088 -0.3125 44.8125 C-6.28213628 46.80237876 -12.65662752 46.43883726 -18.45703125 43.984375 C-23.09161202 41.05727136 -25.60033787 36.49579232 -27.6875 31.5625 C-29.21421193 22.40222843 -29.16792388 13.97980252 -24.3125 5.8125 C-18.24357964 -1.43269986 -8.63012006 -3.09381663 0 0 Z M-16.3125 9.8125 C-18.04773928 12.45667414 -18.3125 13.59715943 -18.3125 16.8125 C-12.0425 16.8125 -5.7725 16.8125 0.6875 16.8125 C-0.61874852 10.29453637 -0.61874852 10.29453637 -3.0625 7.875 C-8.07498005 5.50799553 -12.0489713 6.49642212 -16.3125 9.8125 Z " fill="#FEFFFF" transform="translate(433.3125,214.1875)"/>
<path d="M0 0 C5.88764908 3.97074008 8.12209184 9.07894282 9.6875 15.8125 C10.0818662 22.02376761 10.0818662 22.02376761 8.6875 24.8125 C-0.5525 24.8125 -9.7925 24.8125 -19.3125 24.8125 C-17.9925 28.1125 -16.6725 31.4125 -15.3125 34.8125 C-10.81751861 36.61049255 -8.92639347 37.2931139 -4.3125 36.8125 C-0.81843231 35.14487678 0.51420681 34.07243978 2.6875 30.8125 C5.57325819 31.21053561 6.50939513 31.60259069 8.4375 33.875 C8.85 34.514375 9.2625 35.15375 9.6875 35.8125 C7.3022757 40.86356323 4.52957824 42.39146088 -0.3125 44.8125 C-6.28213628 46.80237876 -12.65662752 46.43883726 -18.45703125 43.984375 C-23.09161202 41.05727136 -25.60033787 36.49579232 -27.6875 31.5625 C-29.21421193 22.40222843 -29.16792388 13.97980252 -24.3125 5.8125 C-18.24357964 -1.43269986 -8.63012006 -3.09381663 0 0 Z M-16.3125 9.8125 C-18.04773928 12.45667414 -18.3125 13.59715943 -18.3125 16.8125 C-12.0425 16.8125 -5.7725 16.8125 0.6875 16.8125 C-0.61874852 10.29453637 -0.61874852 10.29453637 -3.0625 7.875 C-8.07498005 5.50799553 -12.0489713 6.49642212 -16.3125 9.8125 Z " fill="#FFFFFE" transform="translate(735.3125,118.1875)"/>
<path d="M0 0 C6.81048442 7.44401786 6 12.04432611 6 23 C-3.24 23 -12.48 23 -22 23 C-20.09122024 31.61642599 -20.09122024 31.61642599 -16.1875 34.0625 C-11.81313512 35.34907791 -8.64620607 35.44896529 -4.25 34.25 C-1.66177234 32.81209575 -1.0041412 31.7385669 0 29 C3.65316671 30.24976756 4.78065836 30.67098753 7 34 C3.25970057 39.00076663 0.19850727 42.21398943 -6 44 C-12.01540121 44.77092687 -17.73622261 44.1471848 -23 41 C-28.28583572 36.35877839 -30.66876744 31.50105108 -31.3359375 24.44921875 C-31.43482112 14.92672566 -30.60729698 8.58224211 -24.6875 1.0625 C-17.35925241 -4.56150396 -7.79108532 -4.5570499 0 0 Z M-20 9 C-20.66 10.98 -21.32 12.96 -22 15 C-15.73 15 -9.46 15 -3 15 C-3.30227718 8.48574441 -3.30227718 8.48574441 -5.625 6.0625 C-11.35976879 3.49694554 -15.80245044 4.44266048 -20 9 Z " fill="#FFFFFE" transform="translate(430,120)"/>
<path d="M0 0 C5.36973464 0.09084138 8.74063769 2.13843397 12.8125 5.5625 C18.39329211 12.22844614 17.0625 17.02351906 17.0625 26.25 C7.8225 26.25 -1.4175 26.25 -10.9375 26.25 C-8.89714584 34.60713046 -8.89714584 34.60713046 -5.8125 37.375 C-1.67362587 38.63465734 1.92691467 38.55394388 6.0625 37.25 C8.65167968 34.87425779 8.65167968 34.87425779 10.0625 32.25 C13.02425123 32.86277612 14.44308783 33.50372522 17.0625 35.25 C16.58653971 39.53364261 14.22376242 41.51023924 11.0625 44.25 C5.18253832 48.12542929 -0.36810764 47.96387847 -7.0625 46.625 C-12.94416852 43.8120281 -16.89872225 40.38097145 -19.35522461 34.21899414 C-20.37723295 30.76302044 -20.42589159 27.39534832 -20.375 23.8125 C-20.36670166 23.06186279 -20.35840332 22.31122559 -20.34985352 21.5378418 C-20.14477383 14.83881533 -18.91377115 10.4378544 -14.2890625 5.484375 C-9.59536379 1.09812381 -6.35296701 0.40336298 0 0 Z M-8.9375 12.25 C-9.5975 14.23 -10.2575 16.21 -10.9375 18.25 C-4.6675 18.25 1.6025 18.25 8.0625 18.25 C7.55612409 12.61359773 7.55612409 12.61359773 5.4375 9.875 C0.10037147 6.22328048 -4.78189596 7.73820132 -8.9375 12.25 Z " fill="#FFFFFE" transform="translate(461.9375,116.75)"/>
<path d="M0 0 C6.41132943 6.09341227 7.496566 11.55705861 8.046875 20.25390625 C8.10545462 26.30957463 6.8077275 31.59730965 3.078125 36.484375 C-1.99393775 41.53181609 -5.50854872 43.59782395 -12.734375 43.734375 C-18.8921005 43.64395319 -23.49444694 41.96876741 -28.171875 37.921875 C-32.59113571 33.15994434 -34.02131115 26.72622425 -34.234375 20.359375 C-33.65314655 13.15214227 -32.06255278 7.46535401 -27.921875 1.484375 C-20.44793476 -4.55838519 -8.00874389 -6.31583868 0 0 Z M-21.921875 8.484375 C-24.38198248 12.08249139 -24.25426692 15.59004515 -24.296875 19.859375 C-24.32523438 21.14585937 -24.35359375 22.43234375 -24.3828125 23.7578125 C-23.85313886 28.04008918 -22.59847157 30.14861659 -19.921875 33.484375 C-16.71402482 35.83679847 -13.82538248 35.9527959 -9.921875 35.484375 C-6.6514691 33.78627963 -4.49277413 32.58345292 -2.7734375 29.2734375 C-1.00265391 23.47371508 -0.66800055 16.08441659 -2.6796875 10.30859375 C-4.50925253 7.40577994 -6.64085139 5.44938194 -9.921875 4.484375 C-15.17439342 3.7992639 -17.86492315 5.16505076 -21.921875 8.484375 Z " fill="#FFFFFF" transform="translate(609.921875,120.515625)"/>
<path d="M0 0 C4.9901664 6.0691213 5.12915444 11.74462483 5.09765625 19.3671875 C5.0962413 20.04677521 5.09482635 20.72636292 5.09336853 21.42654419 C5.08781518 23.57607612 5.07527169 25.72550008 5.0625 27.875 C5.05747896 29.34114432 5.05291711 30.80729029 5.04882812 32.2734375 C5.03786111 35.84899283 5.02062919 39.42448586 5 43 C2.03 43 -0.94 43 -4 43 C-4.01981934 42.08710205 -4.03963867 41.1742041 -4.06005859 40.23364258 C-4.13836264 36.83217528 -4.22506225 33.43113396 -4.31738281 30.0300293 C-4.35555952 28.56071138 -4.39043182 27.09130361 -4.421875 25.62182617 C-4.46777289 23.50406886 -4.52572372 21.3869241 -4.5859375 19.26953125 C-4.63306885 17.36071167 -4.63306885 17.36071167 -4.68115234 15.41333008 C-4.98215158 12.19107098 -5.61791243 9.90238389 -7 7 C-8.43739513 6.97287934 -9.87493863 6.95354933 -11.3125 6.9375 C-12.11300781 6.92589844 -12.91351562 6.91429687 -13.73828125 6.90234375 C-16.16861334 6.90342145 -16.16861334 6.90342145 -19 8 C-20.14209817 9.78228936 -20.14209817 9.78228936 -21 12 C-21.3407959 12.74403076 -21.6815918 13.48806152 -22.03271484 14.25463867 C-23.12385245 17.35151964 -23.3171712 19.89762549 -23.4140625 23.17578125 C-23.47207031 24.91118164 -23.47207031 24.91118164 -23.53125 26.68164062 C-23.57765625 28.47891602 -23.57765625 28.47891602 -23.625 30.3125 C-23.68300781 32.1387793 -23.68300781 32.1387793 -23.7421875 34.00195312 C-23.83628002 37.00115228 -23.92192209 40.00034823 -24 43 C-26.97 43 -29.94 43 -33 43 C-33 28.15 -33 13.3 -33 -2 C-30.03 -2 -27.06 -2 -24 -2 C-23.67 -0.68 -23.34 0.64 -23 2 C-22.2575 1.360625 -21.515 0.72125 -20.75 0.0625 C-14.50572371 -4.62070722 -6.38506576 -4.35345393 0 0 Z " fill="#FFFFFE" transform="translate(752,216)"/>
<path d="M0 0 C4.9901664 6.0691213 5.12915444 11.74462483 5.09765625 19.3671875 C5.0962413 20.04677521 5.09482635 20.72636292 5.09336853 21.42654419 C5.08781518 23.57607612 5.07527169 25.72550008 5.0625 27.875 C5.05747896 29.34114432 5.05291711 30.80729029 5.04882812 32.2734375 C5.03786111 35.84899283 5.02062919 39.42448586 5 43 C2.03 43 -0.94 43 -4 43 C-4.01981934 42.08710205 -4.03963867 41.1742041 -4.06005859 40.23364258 C-4.13836264 36.83217528 -4.22506225 33.43113396 -4.31738281 30.0300293 C-4.35555952 28.56071138 -4.39043182 27.09130361 -4.421875 25.62182617 C-4.46777289 23.50406886 -4.52572372 21.3869241 -4.5859375 19.26953125 C-4.63306885 17.36071167 -4.63306885 17.36071167 -4.68115234 15.41333008 C-4.98215158 12.19107098 -5.61791243 9.90238389 -7 7 C-8.43739513 6.97287934 -9.87493863 6.95354933 -11.3125 6.9375 C-12.11300781 6.92589844 -12.91351563 6.91429688 -13.73828125 6.90234375 C-16.16861334 6.90342145 -16.16861334 6.90342145 -19 8 C-20.14209817 9.78228936 -20.14209817 9.78228936 -21 12 C-21.3407959 12.74403076 -21.6815918 13.48806152 -22.03271484 14.25463867 C-23.12385245 17.35151964 -23.3171712 19.89762549 -23.4140625 23.17578125 C-23.47207031 24.91118164 -23.47207031 24.91118164 -23.53125 26.68164062 C-23.57765625 28.47891602 -23.57765625 28.47891602 -23.625 30.3125 C-23.68300781 32.1387793 -23.68300781 32.1387793 -23.7421875 34.00195312 C-23.83628002 37.00115228 -23.92192209 40.00034823 -24 43 C-26.97 43 -29.94 43 -33 43 C-33 28.15 -33 13.3 -33 -2 C-30.03 -2 -27.06 -2 -24 -2 C-23.67 -0.68 -23.34 0.64 -23 2 C-22.2575 1.360625 -21.515 0.72125 -20.75 0.0625 C-14.50572371 -4.62070722 -6.38506576 -4.35345393 0 0 Z " fill="#FFFFFF" transform="translate(519,120)"/>
<path d="M0 0 C2.97 0 5.94 0 9 0 C9.33 11.88 9.66 23.76 10 36 C19.13922033 36.83978504 19.13922033 36.83978504 23 34.25 C26.68919807 30.09965217 27.26309699 27.01977712 27.4140625 21.484375 C27.45273437 20.23398438 27.49140625 18.98359375 27.53125 17.6953125 C27.5621875 16.39335937 27.593125 15.09140625 27.625 13.75 C27.66367187 12.43257812 27.70234375 11.11515625 27.7421875 9.7578125 C27.83646182 6.50534839 27.9220675 3.25289004 28 0 C30.97 0 33.94 0 37 0 C37 14.85 37 29.7 37 45 C34.03 45 31.06 45 28 45 C27.67 44.01 27.34 43.02 27 42 C26.21625 42.474375 25.4325 42.94875 24.625 43.4375 C19.64621368 46.40106329 15.74958397 46.49458787 10 46 C5.77532196 44.46375344 3.30351951 42.8796118 1 39 C-0.25282725 35.24151826 -0.12381835 31.74509081 -0.09765625 27.83203125 C-0.0962413 27.03721848 -0.09482635 26.2424057 -0.09336853 25.42350769 C-0.08777378 22.88646675 -0.07522228 20.34951425 -0.0625 17.8125 C-0.05748432 16.09179815 -0.05292153 14.37109492 -0.04882812 12.65039062 C-0.03780607 8.4335597 -0.02054506 4.21679484 0 0 Z " fill="#FFFFFF" transform="translate(624,118)"/>
<path d="M0 0 C3.52912227 3.43625063 4.54655595 6.12547646 5 11 C2.36 11.66 -0.28 12.32 -3 13 C-3.66 11.02 -4.32 9.04 -5 7 C-6.60320974 6.80448662 -8.20762986 6.61888017 -9.8125 6.4375 C-11.15248047 6.28087891 -11.15248047 6.28087891 -12.51953125 6.12109375 C-15.13375572 5.84341291 -15.13375572 5.84341291 -18 7 C-19.00478037 8.8522367 -19.00478037 8.8522367 -19 11 C-16.12978262 15.18714064 -10.49341993 16.09167927 -5.89257812 17.57421875 C-0.47519395 19.45197749 2.3675295 21.735059 5 27 C5.3768901 31.99379386 5.19468322 35.05989069 2 39 C-4.34572539 43.75929404 -9.25694454 44.63091563 -17 44 C-21.31524618 43.06637774 -24.22244064 41.73768452 -27.4375 38.6875 C-29.15701316 35.72993737 -29.68489031 33.38742917 -30 30 C-27.36 29.34 -24.72 28.68 -22 28 C-21.38125 28.969375 -20.7625 29.93875 -20.125 30.9375 C-18.34321154 34.02835362 -18.34321154 34.02835362 -16 35 C-10.11834264 35.46588282 -10.11834264 35.46588282 -5 33 C-4.74969023 30.41619823 -4.74969023 30.41619823 -5 28 C-9.20568528 26.39419289 -13.38206236 24.87724774 -17.6875 23.5625 C-21.50481464 22.26592934 -24.29383262 21.11619274 -27 18 C-28.9339686 13.4101667 -29.26743181 10.01958376 -28 5.1875 C-25.46306215 1.14425531 -22.68962006 -1.17999388 -18.078125 -2.5859375 C-11.53323143 -3.88999524 -5.86694494 -3.33610595 0 0 Z " fill="#FFFFFF" transform="translate(638,216)"/>
<path d="M0 0 C3.36580894 2.48006974 3.91538329 3.57691647 4.75 7.75 C4.8325 8.8225 4.915 9.895 5 11 C2.36 11.66 -0.28 12.32 -3 13 C-3.309375 12.030625 -3.61875 11.06125 -3.9375 10.0625 C-5.62117901 6.88731443 -5.62117901 6.88731443 -8.09765625 6.30859375 C-13.33693111 5.62730252 -13.33693111 5.62730252 -18 8 C-18.25030977 10.58380177 -18.25030977 10.58380177 -18 13 C-16.2984375 13.6496875 -16.2984375 13.6496875 -14.5625 14.3125 C-13.83417969 14.59222656 -13.10585938 14.87195313 -12.35546875 15.16015625 C-10.02498277 16.02705916 -10.02498277 16.02705916 -7.67578125 16.62109375 C-2.60598899 18.00689435 0.74982829 19.71825942 3.95703125 23.9765625 C5.87522715 27.69800623 6.06538675 30.97283807 5 35 C2.81406877 38.91831891 0.21189556 41.36650914 -3.75 43.4375 C-11.17146615 44.72198453 -17.34770347 44.72528606 -24 41 C-28.01865504 37.95885564 -28.88391137 34.83638406 -30 30 C-27.03 29.34 -24.06 28.68 -21 28 C-20.566875 28.969375 -20.13375 29.93875 -19.6875 30.9375 C-18.2985139 34.27731765 -18.2985139 34.27731765 -15 35 C-9.66704568 35.343491 -9.66704568 35.343491 -5 33 C-4.74969023 30.41619823 -4.74969023 30.41619823 -5 28 C-8.82460488 26.29113399 -12.54572737 24.81641561 -16.5625 23.625 C-20.9888781 22.19493938 -23.67718735 20.23974234 -27 17 C-28.74103202 13.51793596 -28.44222386 9.80697058 -28 6 C-26.183546 1.9129785 -24.3562166 -0.13160122 -20.3125 -1.875 C-13.0004796 -4.15830749 -6.68711876 -3.67135932 0 0 Z " fill="#FFFFFF" transform="translate(697,120)"/>
<path d="M0 0 C2.96924027 3.50218083 4.46331953 6.43821599 5 11 C2.03 11.66 -0.94 12.32 -4 13 C-4.309375 12.030625 -4.61875 11.06125 -4.9375 10.0625 C-6.62117901 6.88731443 -6.62117901 6.88731443 -9.09765625 6.30859375 C-14.33693111 5.62730252 -14.33693111 5.62730252 -19 8 C-19.25030977 10.58380177 -19.25030977 10.58380177 -19 13 C-17.906875 13.4125 -16.81375 13.825 -15.6875 14.25 C-14.96433594 14.52585938 -14.24117187 14.80171875 -13.49609375 15.0859375 C-11.73060896 15.73245306 -9.94987065 16.33800587 -8.16015625 16.9140625 C1.42183515 20.07804892 1.42183515 20.07804892 4 25 C5.37445001 29.61422503 5.03649821 32.64929929 3 37 C-0.78465723 41.62569217 -4.15143843 43.59940623 -10.1015625 44.21875 C-16.16512319 44.46879374 -21.85093299 43.65989155 -26.609375 39.640625 C-28.851162 37.19732905 -29.9525007 35.43699358 -30.3125 32.125 C-30.209375 31.42375 -30.10625 30.7225 -30 30 C-27.36 29.34 -24.72 28.68 -22 28 C-21.7525 28.78375 -21.505 29.5675 -21.25 30.375 C-20.22930976 33.02419575 -20.22930976 33.02419575 -18.3125 34.3125 C-15.06155804 35.27899626 -12.37296121 35.30115725 -9 35 C-6.59916562 33.64114884 -6.59916562 33.64114884 -5 32 C-5.46902949 29.51672819 -5.46902949 29.51672819 -7 27 C-9.48737251 25.92888265 -11.65876201 25.17143403 -14.25 24.5 C-20.00203815 22.97441031 -23.70390316 21.21798599 -28 17 C-29.51149553 12.46551342 -29.77441645 8.62258684 -27.6875 4.25 C-21.1581027 -4.45586307 -9.27408996 -5.62320387 0 0 Z " fill="#FEFFFE" transform="translate(793,216)"/>
<path d="M0 0 C0 2.97 0 5.94 0 9 C-1.381875 9.20625 -2.76375 9.4125 -4.1875 9.625 C-9.37602993 10.76075695 -11.1300733 12.60542474 -14 17 C-15.05836661 20.17509982 -15.20243789 22.64282383 -15.31640625 25.98046875 C-15.35830078 27.14384766 -15.40019531 28.30722656 -15.44335938 29.50585938 C-15.48267578 30.72080078 -15.52199219 31.93574219 -15.5625 33.1875 C-15.60568359 34.41404297 -15.64886719 35.64058594 -15.69335938 36.90429688 C-15.7995309 39.93608381 -15.90157952 42.96795315 -16 46 C-22.15234375 46.09765625 -22.15234375 46.09765625 -24 46 C-25.53084425 44.46915575 -25.12715779 43.08796856 -25.12939453 40.95507812 C-25.13254669 40.09748901 -25.13569885 39.2398999 -25.13894653 38.35632324 C-25.1369223 37.42404907 -25.13489807 36.4917749 -25.1328125 35.53125 C-25.13376923 34.58060669 -25.13472595 33.62996338 -25.13571167 32.6505127 C-25.13639357 30.63631118 -25.13453862 28.62210748 -25.13037109 26.60791016 C-25.12502298 23.51329645 -25.13031577 20.4188279 -25.13671875 17.32421875 C-25.13605797 15.37239551 -25.13477681 13.42057236 -25.1328125 11.46875 C-25.13483673 10.53647583 -25.13686096 9.60420166 -25.13894653 8.64367676 C-25.13579437 7.78608765 -25.13264221 6.92849854 -25.12939453 6.04492188 C-25.12859894 5.28626831 -25.12780334 4.52761475 -25.12698364 3.74597168 C-25 2 -25 2 -24 1 C-21.32941149 0.85884839 -18.67567762 0.95752893 -16 1 C-15.67 1.99 -15.34 2.98 -15 4 C-14.2575 3.525625 -13.515 3.05125 -12.75 2.5625 C-8.3530622 0.06423989 -5.03887604 -0.11451991 0 0 Z " fill="#FFFEFF" transform="translate(398,117)"/>
<path d="M0 0 C2.97 0 5.94 0 9 0 C9 14.85 9 29.7 9 45 C6.03 45 3.06 45 0 45 C0 30.15 0 15.3 0 0 Z " fill="#FFFFFF" transform="translate(652,214)"/>
<path d="M0 0 C1.89128342 1.89128342 1.2366852 4.57067726 1.328125 7.08984375 C1.21984375 7.72019531 1.1115625 8.35054687 1 9 C-2 11 -2 11 -5.625 10.75 C-6.73875 10.5025 -7.8525 10.255 -9 10 C-10.41441874 7.17116253 -10.31900332 5.12623255 -10 2 C-6.93891643 -1.64975349 -4.3702682 -1.16540485 0 0 Z " fill="#FFFFFF" transform="translate(661,199)"/>
</svg>
