<?xml version="1.0" encoding="utf-8"?>
<svg version="1.1" id="Layer_1" xmlns:xodm="http://www.corel.com/coreldraw/odm/2003"
     xmlns="http://www.w3.org/2000/svg" xmlns:xlink="http://www.w3.org/1999/xlink" x="0px" y="0px" viewBox="0 0 6000 9000"
     style="enable-background:new 0 0 6000 9000;" xml:space="preserve">
  <g id="Layer_x5F_1">
    <g id="_2785931539536">
      <!-- Change the fill color here -->
      <rect style="fill-rule:evenodd;clip-rule:evenodd;fill:#4F46E5;" width="6000" height="9000" />
      <path style="fill-rule:evenodd;clip-rule:evenodd;fill:#FFFFFF;" d="M2394.64,7593.92C3636.44,5439.04,2439.41,4190.01,0,5674.75
			v1121.64c996.67-651.77,2150.3-52.21,835.5,2203.61H6000V2829.12C4872.08,1654.39,5148.65,649.6,6000,208.7V0H3636.56
			c-285.92,592.22-144.09,1556.53,749.05,2922.82C8112.5,8624.12,1092.86,9852.9,2394.64,7593.92L2394.64,7593.92z"/>
      <path style="fill-rule:evenodd;clip-rule:evenodd;fill:#FFFFFF;" d="M1518.94,3952.65C2217.99,6101.36,5155.23,1853.42,1545.2,0H0
			v2255.12C568.54,2248.56,1152.56,2826.45,1518.94,3952.65L1518.94,3952.65z"/>
    </g>
  </g>
</svg>
